# xmcd CD database file
#
# Track frame offsets:
#	150
#	28612
#	43650
#	57912
#	81477
#	94575
#	111280
#	138755
#	154330
#	171482
#	188472
#	205257
#	221697
#
# Disc length: 3341 seconds
#
# Revision: 2
# Processed by: cddbd v1.5.2PL0 Copyright (c) Steve Scherf et al.
# Submitted via: CDex 1.51
#
DISCID=b50d0b0d
DTITLE=Taj Mahal and The Phantom Blues Band - Shoutin' In Key - Live
DYEAR=2000
DGENRE=Blues
TTITLE0=Honky Tonk (Live)
TTITLE1=EZ Rider (Live)
TTITLE2=Aint' That A Lot Of Love (Live)
TTITLE3=Ev'ry Wind  (In The River) (Live)
TTITLE4=Stranger In My Own Home Town (Live)
TTITLE5=Woulda Coulda Shoulda (Live)
TTITLE6=Leavin' Trunk (Live)
TTITLE7=Rain From The Sky (Live)
TTITLE8=Mailbox Blues (Live)
TTITLE9=Cruisin' (Live)
TTITLE10=Corrina (Live)
TTITLE11=The Hoochie Coochie Coo (Live)
TTITLE12=Sentidos Dulce (Live)
EXTD=Taj Mahal and The Phanton Blues Band YEAR: 2000
EXTT0=
EXTT1=
EXTT2=
EXTT3=
EXTT4=
EXTT5=
EXTT6=
EXTT7=
EXTT8=
EXTT9=
EXTT10=
EXTT11=
EXTT12=
PLAYORDER=
